<svg width="74" height="74" viewBox="0 0 74 74" fill="none" xmlns="http://www.w3.org/2000/svg">
<path d="M18.5 50.875H9.25V64.75H18.5V50.875ZM41.625 32.375H32.375V64.75H41.625V32.375ZM64.75 9.25V64.75H55.5V9.25H64.75ZM55.5 4.625C54.2734 4.625 53.097 5.11228 52.2296 5.97963C51.3623 6.84699 50.875 8.02337 50.875 9.25V64.75C50.875 65.9766 51.3623 67.153 52.2296 68.0204C53.097 68.8877 54.2734 69.375 55.5 69.375H64.75C65.9766 69.375 67.153 68.8877 68.0204 68.0204C68.8877 67.153 69.375 65.9766 69.375 64.75V9.25C69.375 8.02337 68.8877 6.84699 68.0204 5.97963C67.153 5.11228 65.9766 4.625 64.75 4.625H55.5ZM27.75 32.375C27.75 31.1484 28.2373 29.972 29.1046 29.1046C29.972 28.2373 31.1484 27.75 32.375 27.75H41.625C42.8516 27.75 44.028 28.2373 44.8954 29.1046C45.7627 29.972 46.25 31.1484 46.25 32.375V64.75C46.25 65.9766 45.7627 67.153 44.8954 68.0204C44.028 68.8877 42.8516 69.375 41.625 69.375H32.375C31.1484 69.375 29.972 68.8877 29.1046 68.0204C28.2373 67.153 27.75 65.9766 27.75 64.75V32.375ZM4.625 50.875C4.625 49.6484 5.11228 48.472 5.97963 47.6046C6.84699 46.7373 8.02337 46.25 9.25 46.25H18.5C19.7266 46.25 20.903 46.7373 21.7704 47.6046C22.6377 48.472 23.125 49.6484 23.125 50.875V64.75C23.125 65.9766 22.6377 67.153 21.7704 68.0204C20.903 68.8877 19.7266 69.375 18.5 69.375H9.25C8.02337 69.375 6.84699 68.8877 5.97963 68.0204C5.11228 67.153 4.625 65.9766 4.625 64.75V50.875Z" fill="white"/>
</svg>
